<svg display="none" xmlns:xlink = "http://www.w3.org/1999/xlink" xmlns="http://www.w3.org/2000/svg"  >
<symbol viewBox="0 0 42 42" id="logo">
    <path fill-rule="evenodd" clip-rule="evenodd" d="M21 5C29.8 5 37 12.2 37 21C37 29.8 29.8 37 21 37C12.2 37 5 29.8 5 21C5 12.2 12.2 5 21 5ZM21 0C9.4 0 0 9.4 0 21C0 32.6 9.4 42 21 42C32.6 42 42 32.6 42 21C42 9.4 32.6 0 21 0Z" />  
</symbol>
<symbol viewBox="0 0 26 43" id="mouse">
  <path fill-rule="evenodd" clip-rule="evenodd" d="M13 14C14.6569 14 16 12.6569 16 11C16 9.34315 14.6569 8 13 8C11.3431 8 10 9.34315 10 11C10 12.6569 11.3431 14 13 14Z" fill="white"/>
<rect x="1" y="1" width="24" height="41" rx="12" stroke="white" stroke-width="2"/>  
</symbol>
<symbol viewBox="0 0 50 51"  id="graphic_design">
  <path fill-rule="evenodd" clip-rule="evenodd" d="M45.3906 14.7949L43.7566 16.4289C40.2162 13.343 35.6766 11.617 30.9566 11.617C27.7787 11.617 24.6026 12.434 21.8792 13.8859L28.7779 6.98722C29.3226 7.34977 29.9575 7.5319 30.5941 7.5319C31.5013 7.5319 32.4102 7.16935 33.1353 6.44254C34.5872 4.99063 34.5872 2.71999 33.1353 1.26807C32.4085 0.541264 31.5013 0.178711 30.5941 0.178711C29.6868 0.178711 28.7779 0.541264 28.0528 1.26807C26.8732 2.53956 26.6911 4.35403 27.5081 5.71573L18.7932 14.4306L17.1592 12.7966L12.7115 17.2442L14.3455 18.8783L5.44852 27.7753C4.90384 27.4128 4.26894 27.2306 3.63235 27.2306C2.72512 27.2306 1.81618 27.5932 1.09107 28.32C-0.360842 29.7719 -0.360842 32.0425 1.09107 33.4945C1.81788 34.1294 2.72512 34.4936 3.63235 34.4936C4.53958 34.4936 5.44852 34.1311 6.17363 33.4042C7.3532 32.2247 7.53533 30.4085 6.71831 28.9566L13.617 22.0579C9.98639 29.0485 10.8034 37.7634 16.1583 43.9353L14.5243 45.6596L19.0638 50.1072L23.5115 45.6596L19.0638 41.2119L17.52 42.7557C12.2553 36.5821 11.983 27.6868 16.4306 21.1506L17.1575 21.8774L21.697 17.4298L20.88 16.703C23.7855 14.6145 27.326 13.5251 30.9566 13.5251C35.2238 13.5251 39.217 15.0689 42.4851 17.7923L40.8511 19.3362L45.3906 23.7838L49.8383 19.3362L45.3906 14.7966V14.7949ZM20.9702 45.6596L19.0638 47.5659L17.1575 45.6596L19.0638 43.7532L20.9702 45.6596ZM29.3226 2.62977C29.6851 2.26722 30.1396 2.08509 30.5941 2.08509C31.0485 2.08509 31.5013 2.26722 31.8655 2.62977C32.5924 3.35658 32.5924 4.44595 31.8655 5.17105C31.503 5.5336 31.0485 5.71573 30.5941 5.71573C30.1396 5.71573 29.6868 5.5336 29.3226 5.17105C28.5958 4.53616 28.5958 3.35488 29.3226 2.62977ZM4.90214 32.1328C4.53958 32.4953 4.08511 32.6774 3.63065 32.6774C3.17618 32.6774 2.72341 32.4953 2.35916 32.1328C1.9966 31.8604 1.81448 31.4059 1.81448 30.8613C1.81448 30.4068 1.9966 29.954 2.35916 29.5898C2.72171 29.2255 3.17618 29.0451 3.63065 29.0451C4.08511 29.0451 4.53788 29.2272 4.90214 29.5898C5.62894 30.3166 5.62894 31.4962 4.90214 32.1311V32.1328ZM17.0672 19.3328L15.1609 17.4264L17.0672 15.52L18.9736 17.4264L17.0672 19.3328ZM45.3906 21.2391L43.4843 19.3328L45.3906 17.4264L47.297 19.3328L45.3906 21.2391Z" />
</symbol>
<symbol viewBox="0 5 50 51" id="marketing">
  <path fill-rule="evenodd" clip-rule="evenodd" d="M0.557434 19.5254V30.9679H5.46156V40.7761H7.09576V30.9679H19.6696L31.6087 40.629V9.57153L19.5945 19.5254H0.557434ZM2.19317 29.3321V21.1596H8.73149V29.3321H2.19317ZM20.6369 20.784L29.973 13.0484V37.2027L20.2475 29.3337H10.3642V21.1612H20.1816L20.6354 20.7856L20.6369 20.784Z" />
<path fill-rule="evenodd" clip-rule="evenodd" d="M42.9209 11.0125L41.745 12.1883C45.5699 15.1823 48.0427 19.8304 48.0427 25.0534C48.0427 30.4159 45.435 35.1698 41.4338 38.1515L42.6173 39.335C46.9082 36.0497 49.6784 30.8758 49.6784 25.0534C49.6784 19.372 47.0386 14.3069 42.9224 11.0125L42.9209 11.0125Z" />
<path fill-rule="evenodd" clip-rule="evenodd" d="M37.6688 16.2822L36.4807 17.4703C39.004 19.0647 40.6888 21.8701 40.6888 25.0695C40.6888 28.4099 38.8538 31.3242 36.1419 32.8741L37.333 34.0652C40.327 32.1858 42.3245 28.8652 42.3245 25.0695C42.3245 21.4148 40.4788 18.1939 37.6703 16.2822L37.6688 16.2822Z" />  
</symbol>
<symbol viewBox="0 0 50 50" id="web-development">
  <path fill-rule="evenodd" clip-rule="evenodd" d="M46.6578 35.8298V5.84229H3.34063V35.8298H24.1656V42.4938H18.3344V44.1595H31.6625V42.4938H25.8313V35.8298H46.6562H46.6578ZM5.00781 7.50635H44.9922V34.1626H5.00781V7.50635Z" />  
</symbol>
<symbol viewBox="0 0 490.688 490.688" id="arrow_down">   

    <g>
    <path style="fill:#607D8B;" d="M472.328,216.529L245.213,443.665L18.098,216.529c-4.237-4.093-10.99-3.975-15.083,0.262
      c-3.992,4.134-3.992,10.687,0,14.82l234.667,234.667c4.165,4.164,10.917,4.164,15.083,0l234.667-234.667
      c4.093-4.237,3.975-10.99-0.262-15.083c-4.134-3.993-10.687-3.993-14.821,0L472.328,216.529z"/>
    <path style="fill:#607D8B;" d="M472.328,24.529L245.213,251.665L18.098,24.529c-4.237-4.093-10.99-3.975-15.083,0.262
      c-3.992,4.134-3.992,10.687,0,14.821l234.667,234.667c4.165,4.164,10.917,4.164,15.083,0L487.432,39.612
      c4.237-4.093,4.354-10.845,0.262-15.083c-4.093-4.237-10.845-4.354-15.083-0.262c-0.089,0.086-0.176,0.173-0.262,0.262
      L472.328,24.529z"/>
  </g>
  <path d="M245.213,469.415c-2.831,0.005-5.548-1.115-7.552-3.115L2.994,231.633c-4.093-4.237-3.975-10.99,0.262-15.083
    c4.134-3.992,10.687-3.992,14.82,0l227.136,227.115l227.115-227.136c4.237-4.093,10.99-3.975,15.083,0.262
    c3.993,4.134,3.993,10.687,0,14.821L252.744,466.279C250.748,468.28,248.04,469.408,245.213,469.415z"/>
  <path d="M245.213,277.415c-2.831,0.005-5.548-1.115-7.552-3.115L2.994,39.633c-4.093-4.237-3.975-10.99,0.262-15.083
    c4.134-3.992,10.687-3.992,14.821,0l227.136,227.115L472.328,24.529c4.093-4.237,10.845-4.354,15.083-0.262
    s4.354,10.845,0.262,15.083c-0.086,0.089-0.173,0.176-0.262,0.262L252.744,274.279C250.748,276.28,248.04,277.408,245.213,277.415z"
    />
</symbol>
<symbol  viewBox="0 0 55 65" id="video-icon" >
  <path fill-rule="evenodd" clip-rule="evenodd" d="M3.04809 5.31272L48.8267 32.0164L3.04809 58.7201V5.31272ZM0 0.00285937V64.0271L54.8771 32.0136L0 0V0.00285937Z" />
</symbol>
<symbol viewBox="0 0 35 35" id="arrow-left">
  <path fill-rule="evenodd" clip-rule="evenodd" d="M34.8297 18.6013H5.1246L19.3955 32.942L17.7539 34.5917L0.680328 17.4347L17.7562 0.27533L19.3978 1.925L5.1246 16.268H34.8297V18.6013Z"/>
</symbol>
<symbol viewBox="0 0 35 35" id="arrow-right">
  <g clip-path="url(#clip0)">
  <path fill-rule="evenodd" clip-rule="evenodd" d="M34.1494 17.4347L17.0735 34.594L15.4319 32.9443L29.7028 18.6037H0V16.2703H29.7051L15.4319 1.925L17.0735 0.27533L34.1494 17.4347Z"/>
</g>
</symbol>
<symbol viewBox="0 0 17 9" id="arrowUp">
  <path fill-rule="evenodd" clip-rule="evenodd" d="M16.354 7.89597L15.647 8.60297L8.5 1.45697L1.354 8.60297L0.647003 7.89597L8.5 0.0429688L16.354 7.89597Z" />
</symbol>
<symbol viewBox="0 0 24 24" id="closeModal">
 <path d="M12,11.2928932 L16.1464466,7.14644661 C16.3417088,6.95118446 16.6582912,6.95118446 16.8535534,7.14644661 C17.0488155,7.34170876 17.0488155,7.65829124 16.8535534,7.85355339 L12.7071068,12 L16.8535534,16.1464466 C17.0488155,16.3417088 17.0488155,16.6582912 16.8535534,16.8535534 C16.6582912,17.0488155 16.3417088,17.0488155 16.1464466,16.8535534 L12,12.7071068 L7.85355339,16.8535534 C7.65829124,17.0488155 7.34170876,17.0488155 7.14644661,16.8535534 C6.95118446,16.6582912 6.95118446,16.3417088 7.14644661,16.1464466 L11.2928932,12 L7.14644661,7.85355339 C6.95118446,7.65829124 6.95118446,7.34170876 7.14644661,7.14644661 C7.34170876,6.95118446 7.65829124,6.95118446 7.85355339,7.14644661 L12,11.2928932 Z"/>
</symbol>
</svg>




 


